<svg width="270" height="270" viewBox="0 0 270 270" fill="none" xmlns="http://www.w3.org/2000/svg">
<g filter="url(#filter0_b)">
<path d="M270 143.311L204.513 143.311C205.632 95.5842 219.169 90.1664 236.171 88.6201L242.727 87.8073L242.727 35.3264L235.17 35.7314C212.969 36.9805 188.423 40.9828 172.047 61.1987C157.692 78.9205 151.364 107.873 151.364 152.318L151.364 234.675L270 234.675L270 143.311Z" fill="url(#paint0_linear)" fill-opacity="0.2"/>
<path d="M118.636 234.675L118.636 143.311L54.023 143.311C55.1426 95.5841 68.2417 90.1664 85.2435 88.6201L91.3635 87.8073L91.3635 35.3264L84.2426 35.7314C62.0412 36.9805 37.2762 40.9828 20.9003 61.1987C6.54667 78.9205 -0.000141503 107.873 -0.000145388 152.318L-0.000152588 234.675L118.636 234.675Z" fill="url(#paint1_linear)" fill-opacity="0.2"/>
</g>
<defs>
<filter id="filter0_b" x="-4" y="-4" width="278" height="278" filterUnits="userSpaceOnUse" color-interpolation-filters="sRGB">
<feFlood flood-opacity="0" result="BackgroundImageFix"/>
<feGaussianBlur in="BackgroundImage" stdDeviation="2"/>
<feComposite in2="SourceAlpha" operator="in" result="effect1_backgroundBlur"/>
<feBlend mode="normal" in="SourceGraphic" in2="effect1_backgroundBlur" result="shape"/>
</filter>
<linearGradient id="paint0_linear" x1="210.682" y1="234.675" x2="210.682" y2="35.3264" gradientUnits="userSpaceOnUse">
<stop stop-color="#F59A00" stop-opacity="0"/>
<stop offset="1" stop-color="#F59A00"/>
</linearGradient>
<linearGradient id="paint1_linear" x1="59.318" y1="234.675" x2="59.3181" y2="35.3264" gradientUnits="userSpaceOnUse">
<stop stop-color="#F59A00" stop-opacity="0"/>
<stop offset="1" stop-color="#F59A00"/>
</linearGradient>
</defs>
</svg>
