<?xml version="1.0" encoding="utf-8"?>
<!-- Generator: Adobe Illustrator 16.0.0, SVG Export Plug-In . SVG Version: 6.00 Build 0)  -->
<!DOCTYPE svg PUBLIC "-//W3C//DTD SVG 1.1//EN" "http://www.w3.org/Graphics/SVG/1.1/DTD/svg11.dtd">
<svg version="1.1" id="Layer_3" xmlns="http://www.w3.org/2000/svg" xmlns:xlink="http://www.w3.org/1999/xlink" x="0px" y="0px"
	 width="718.465px" height="235.488px" viewBox="0 0 718.465 235.488" enable-background="new 0 0 718.465 235.488"
	 xml:space="preserve">
<g>
	<path fill="#9D7F1B" d="M141.531,105.645V54.965h12.32v41.021h38.988v9.66H141.531z"/>
	<path fill="#9D7F1B" d="M263.893,80.235c0,7.514-2.918,13.697-8.75,18.55c-3.222,2.66-7.014,4.714-11.375,6.16
		c-4.364,1.446-9.159,2.17-14.387,2.17c-5.18,0-9.964-0.724-14.35-2.17c-4.387-1.446-8.167-3.5-11.34-6.16
		c-2.896-2.38-5.064-5.133-6.511-8.26c-1.446-3.126-2.17-6.556-2.17-10.29c0-3.687,0.734-7.081,2.204-10.186
		c1.472-3.103,3.651-5.845,6.546-8.225c3.221-2.66,7.034-4.725,11.444-6.195c4.41-1.47,9.158-2.205,14.245-2.205
		c5.086,0,9.835,0.735,14.245,2.205c4.41,1.471,8.225,3.535,11.445,6.195C260.975,66.679,263.893,72.815,263.893,80.235z
		 M251.222,80.235c0-2.521-0.515-4.818-1.54-6.896c-1.026-2.075-2.484-3.86-4.375-5.354c-1.891-1.493-4.178-2.66-6.859-3.5
		c-2.685-0.84-5.683-1.26-8.995-1.26c-3.313,0-6.313,0.42-8.995,1.26c-2.684,0.84-4.97,2.007-6.859,3.5
		c-1.891,1.494-3.35,3.279-4.375,5.354c-1.026,2.077-1.54,4.375-1.54,6.896c0,2.567,0.501,4.9,1.506,7
		c1.003,2.1,2.449,3.896,4.34,5.39c1.89,1.494,4.165,2.649,6.825,3.465c2.659,0.817,5.67,1.226,9.028,1.226
		c3.36,0,6.382-0.408,9.065-1.226c2.683-0.815,4.97-1.971,6.859-3.465c1.891-1.493,3.349-3.29,4.375-5.39
		C250.708,85.135,251.222,82.802,251.222,80.235z"/>
	<path fill="#9D7F1B" d="M320.871,56.82c3.78,1.237,7,2.987,9.66,5.25c2.66,2.264,4.701,4.994,6.125,8.19
		c1.423,3.196,2.136,6.731,2.136,10.604c0,7.467-3.011,13.58-9.03,18.34c-2.566,2.054-5.564,3.641-8.994,4.76
		c-3.431,1.12-7.082,1.681-10.955,1.681h-35.7V54.965h34.021C312.844,54.965,317.092,55.584,320.871,56.82z M316.636,94.228
		c2.45-1.171,4.469-2.766,6.056-4.782c2.1-2.671,3.149-5.601,3.149-8.789c0-2.297-0.42-4.43-1.261-6.398
		c-0.84-1.968-2.007-3.667-3.5-5.097c-1.493-1.429-3.278-2.543-5.354-3.34c-2.077-0.796-4.354-1.195-6.825-1.195h-22.47v31.36h22.54
		C311.632,95.985,314.187,95.4,316.636,94.228z"/>
	<path fill="#9D7F1B" d="M398.991,105.645V83.875h-36.608v21.771h-12.32v-50.61h12.32v18.48h36.608v-18.48h12.32v50.61H398.991z"/>
	<path fill="#9D7F1B" d="M475.641,105.645l-5.811-10.92h-32.479l-5.811,10.92h-12.46l26.95-50.681h15.189l26.88,50.681H475.641z
		 M453.521,64.275l-11.131,20.79h22.261L453.521,64.275z"/>
</g>
<g>
	<rect x="14.898" y="166.28" fill="#6D6E71" width="78.735" height="12.586"/>
	<rect x="14.898" y="54.96" fill="#6D6E71" width="78.735" height="12.576"/>
	<rect x="14.898" y="82.847" fill="#6D6E71" width="78.735" height="12.596"/>
	<rect x="14.898" y="110.773" fill="#6D6E71" width="78.735" height="12.428"/>
	<rect x="14.898" y="138.51" fill="#6D6E71" width="78.735" height="12.61"/>
</g>
<g>
	<g>
		<path fill="#6D6E71" d="M325.138,154.219h29.68v-5.41h-29.68v-16.221h42.7v-5.409h-48.25v51.68h50.21v-5.41h-44.66V154.219z
			 M253.764,131.382c-1.376-1.351-3.062-2.399-5.008-3.121c-1.936-0.719-4.126-1.081-6.509-1.081h-38.72v51.68h5.55v-20.79h31.979
			c2.61,0,4.985-0.362,7.059-1.077c2.084-0.719,3.885-1.754,5.353-3.077c1.472-1.326,2.608-2.953,3.383-4.836
			c0.768-1.874,1.156-3.985,1.156-6.279c0-2.384-0.363-4.563-1.081-6.477C256.203,134.397,255.139,132.735,253.764,131.382z
			 M249.35,150.041c-1.737,1.737-4.244,2.618-7.451,2.618h-32.82v-20.07h31.141c7.905,0,11.75,3.271,11.75,10
			C251.969,145.796,251.087,148.303,249.35,150.041z M185.535,151.51c-2.559-1.09-5.625-1.785-9.116-2.068
			c-3.419-0.277-7.404-0.514-11.849-0.702c-3.189-0.138-6.013-0.372-8.39-0.695c-2.351-0.317-4.334-0.802-5.899-1.438
			c-1.521-0.617-2.676-1.425-3.434-2.398c-0.742-0.955-1.119-2.206-1.119-3.719c0-2.904,1.525-5.118,4.667-6.768
			c3.204-1.681,8.013-2.532,14.293-2.532c3.862,0,7.535,0.396,10.912,1.177c3.373,0.781,6.711,2.062,9.92,3.803l0.343,0.187
			l3.878-4.215l-0.484-0.325c-3.022-2.03-6.636-3.539-10.735-4.482c-4.082-0.938-8.83-1.413-14.112-1.413
			c-8.037,0-14.261,1.333-18.498,3.961c-4.313,2.676-6.502,6.434-6.502,11.171c0,2.616,0.646,4.823,1.917,6.56
			c1.266,1.729,3.229,3.096,5.825,4.058c2.368,0.899,5.218,1.487,8.468,1.745c3.213,0.258,6.987,0.481,11.22,0.667
			c3.418,0.14,6.449,0.408,9.012,0.8c2.529,0.389,4.654,0.952,6.313,1.68c1.612,0.707,2.826,1.627,3.608,2.733
			c0.773,1.1,1.168,2.521,1.168,4.229c0,3.478-1.737,6.15-5.313,8.174c-3.615,2.048-8.984,3.086-15.958,3.086
			c-4.413,0-8.618-0.57-12.497-1.695c-3.878-1.123-7.73-2.904-11.452-5.296l-0.407-0.261l-3.218,4.657l0.407,0.285
			c3.575,2.493,7.762,4.401,12.44,5.672c4.667,1.267,9.951,1.908,15.706,1.908c8.598,0,15.235-1.477,19.73-4.387
			c4.564-2.956,6.879-7.136,6.879-12.425C193.259,157.68,190.661,153.734,185.535,151.51z M273.338,127.179h-5.55v51.68h44.681
			v-5.41h-39.131V127.179z M429.767,172.668l-41.762-45.328l-0.149-0.16h-7.299v51.68h5.55v-45.492l41.902,45.332l0.147,0.16h7.159
			v-51.68h-5.55L429.767,172.668L429.767,172.668z M500.509,134.32c-2.347-2.275-5.243-4.056-8.61-5.291
			c-3.354-1.228-7.181-1.85-11.372-1.85h-30.67v51.68h32.35c3.548,0,6.917-0.612,10.018-1.819c3.104-1.209,5.882-3,8.253-5.322
			c2.417-2.369,4.269-5.123,5.505-8.187c1.231-3.056,1.855-6.404,1.855-9.952c0-4.007-0.637-7.683-1.89-10.926
			C504.688,139.402,502.858,136.599,500.509,134.32z M500.219,161.102c-0.907,2.402-2.218,4.563-3.89,6.416
			c-3.664,3.936-8.299,5.931-13.773,5.931h-27.149v-40.86h25.82c3.046,0,5.855,0.507,8.354,1.503
			c2.489,0.997,4.646,2.42,6.406,4.228c1.765,1.807,3.151,4.011,4.127,6.549c0.978,2.546,1.473,5.406,1.473,8.501
			C501.586,156.095,501.126,158.697,500.219,161.102z M682.426,127.179h-7.322l-27.34,51.68h6.379l7.07-13.16h35.1l6.93,13.16h6.38
			L682.426,127.179z M664.056,160.289l14.729-27.699l14.688,27.699H664.056z M639.213,153.552c2.7-2.63,4.07-6.247,4.07-10.754
			c0-2.337-0.364-4.491-1.082-6.405c-0.723-1.927-1.784-3.6-3.159-4.974c-1.373-1.374-3.06-2.438-5.01-3.159
			c-1.936-0.719-4.126-1.081-6.509-1.081h-38.72v51.68h5.55v-20.79h26.902l15.891,20.79h6.77l-15.461-20.872
			C633.069,157.501,636.685,156.011,639.213,153.552z M594.354,152.659v-20.07h31.14c7.906,0,11.75,3.271,11.75,10
			c0,3.207-0.881,5.715-2.617,7.451c-1.737,1.737-4.244,2.618-7.451,2.618L594.354,152.659L594.354,152.659z M568.273,132.684
			c-2.739-2.269-5.984-4.04-9.645-5.27c-3.653-1.226-7.605-1.847-11.744-1.847c-4.188,0-8.162,0.621-11.813,1.847
			c-3.661,1.229-6.906,3.001-9.644,5.269c-6.393,5.255-9.633,12.072-9.633,20.266c0,8.286,3.218,15.129,9.562,20.336
			c2.695,2.223,5.916,3.972,9.574,5.198c3.649,1.225,7.673,1.846,11.954,1.846c4.279,0,8.291-0.621,11.921-1.846
			c3.635-1.229,6.844-2.977,9.537-5.197c6.345-5.209,9.563-12.051,9.563-20.337C577.905,144.756,574.664,137.938,568.273,132.684z
			 M570.193,161.901c-1.201,2.693-2.913,5.021-5.088,6.922c-2.179,1.904-4.844,3.413-7.92,4.481c-3.081,1.07-6.57,1.613-10.37,1.613
			c-3.805,0-7.295-0.53-10.374-1.58c-3.072-1.045-5.735-2.552-7.915-4.479c-2.176-1.922-3.876-4.262-5.054-6.954
			c-1.181-2.693-1.777-5.718-1.777-8.991c0-6.75,2.691-12.309,7.999-16.521c2.187-1.728,4.783-3.1,7.725-4.077
			c2.942-0.979,6.104-1.478,9.396-1.478c3.293,0,6.454,0.497,9.396,1.478c2.939,0.979,5.537,2.351,7.722,4.076
			c5.354,4.26,8.071,9.817,8.071,16.521C572.006,156.181,571.396,159.206,570.193,161.901z"/>
	</g>
</g>
</svg>
